<svg xmlns="http://www.w3.org/2000/svg" xmlns:xlink="http://www.w3.org/1999/xlink" width="500" zoomAndPan="magnify" viewBox="0 0 375 374.999991" height="500" preserveAspectRatio="xMidYMid meet" version="1.0"><defs><g/><clipPath id="b07dac8ccf"><path d="M 359.078125 187.5 L 368.46875 187.5 L 368.46875 196.890625 L 359.078125 196.890625 Z M 359.078125 187.5 " clip-rule="nonzero"/></clipPath><clipPath id="49ee288587"><path d="M 363.773438 187.5 C 361.183594 187.5 359.078125 189.601562 359.078125 192.195312 C 359.078125 194.789062 361.183594 196.890625 363.773438 196.890625 C 366.367188 196.890625 368.46875 194.789062 368.46875 192.195312 C 368.46875 189.601562 366.367188 187.5 363.773438 187.5 " clip-rule="nonzero"/></clipPath><clipPath id="81e00eff03"><path d="M 6.371094 136.464844 L 74.621094 136.464844 L 74.621094 208.464844 L 6.371094 208.464844 Z M 6.371094 136.464844 " clip-rule="nonzero"/></clipPath><clipPath id="78a0c90e20"><path d="M 45.574219 170.007812 L 15.113281 170.007812 C 13.929688 170.007812 13.074219 168.875 13.394531 167.730469 L 21.757812 137.773438 C 21.972656 137 22.675781 136.464844 23.476562 136.464844 L 53.9375 136.464844 C 55.121094 136.464844 55.976562 137.597656 55.65625 138.742188 L 47.292969 168.699219 C 47.078125 169.472656 46.375 170.007812 45.574219 170.007812 Z M 25.789062 192.621094 L 30.09375 177.195312 C 30.414062 176.054688 29.558594 174.921875 28.378906 174.921875 L 12.71875 174.921875 C 11.917969 174.921875 11.21875 175.453125 11 176.230469 L 6.695312 191.652344 C 6.375 192.796875 7.230469 193.929688 8.414062 193.929688 L 24.074219 193.929688 C 24.871094 193.929688 25.574219 193.394531 25.789062 192.621094 Z M 33.714844 176.230469 L 25.351562 206.1875 C 25.03125 207.332031 25.886719 208.464844 27.066406 208.464844 L 57.53125 208.464844 C 58.332031 208.464844 59.03125 207.929688 59.25 207.15625 L 67.613281 177.195312 C 67.929688 176.054688 67.074219 174.921875 65.894531 174.921875 L 35.429688 174.921875 C 34.632812 174.921875 33.929688 175.453125 33.714844 176.230469 Z M 55.21875 152.304688 L 50.910156 167.730469 C 50.59375 168.875 51.445312 170.007812 52.628906 170.007812 L 68.289062 170.007812 C 69.085938 170.007812 69.789062 169.472656 70.003906 168.699219 L 74.3125 153.273438 C 74.632812 152.132812 73.777344 151 72.59375 151 L 56.933594 151 C 56.136719 151 55.433594 151.53125 55.21875 152.304688 Z M 55.21875 152.304688 " clip-rule="nonzero"/></clipPath><linearGradient x1="114.296442" gradientTransform="matrix(0.143262, 0, 0, 0.143998, 6.62791, 136.465087)" y1="-47.63397" x2="358.610853" gradientUnits="userSpaceOnUse" y2="547.607225" id="77484dd035"><stop stop-opacity="1" stop-color="rgb(0%, 98.799133%, 65.899658%)" offset="0"/><stop stop-opacity="1" stop-color="rgb(0%, 98.799133%, 65.899658%)" offset="0.0625"/><stop stop-opacity="1" stop-color="rgb(0.0213623%, 98.773193%, 65.965271%)" offset="0.09375"/><stop stop-opacity="1" stop-color="rgb(0.100708%, 98.677063%, 66.210938%)" offset="0.101562"/><stop stop-opacity="1" stop-color="rgb(0.216675%, 98.536682%, 66.571045%)" offset="0.109375"/><stop stop-opacity="1" stop-color="rgb(0.332642%, 98.396301%, 66.929626%)" offset="0.117187"/><stop stop-opacity="1" stop-color="rgb(0.448608%, 98.25592%, 67.289734%)" offset="0.125"/><stop stop-opacity="1" stop-color="rgb(0.564575%, 98.117065%, 67.649841%)" offset="0.132812"/><stop stop-opacity="1" stop-color="rgb(0.679016%, 97.976685%, 68.008423%)" offset="0.140625"/><stop stop-opacity="1" stop-color="rgb(0.794983%, 97.836304%, 68.36853%)" offset="0.148438"/><stop stop-opacity="1" stop-color="rgb(0.91095%, 97.695923%, 68.727112%)" offset="0.15625"/><stop stop-opacity="1" stop-color="rgb(1.026917%, 97.555542%, 69.087219%)" offset="0.164062"/><stop stop-opacity="1" stop-color="rgb(1.142883%, 97.415161%, 69.445801%)" offset="0.171875"/><stop stop-opacity="1" stop-color="rgb(1.25885%, 97.27478%, 69.805908%)" offset="0.179688"/><stop stop-opacity="1" stop-color="rgb(1.374817%, 97.135925%, 70.16449%)" offset="0.1875"/><stop stop-opacity="1" stop-color="rgb(1.490784%, 96.995544%, 70.524597%)" offset="0.195312"/><stop stop-opacity="1" stop-color="rgb(1.60675%, 96.855164%, 70.883179%)" offset="0.203125"/><stop stop-opacity="1" stop-color="rgb(1.722717%, 96.714783%, 71.243286%)" offset="0.210938"/><stop stop-opacity="1" stop-color="rgb(1.838684%, 96.574402%, 71.603394%)" offset="0.21875"/><stop stop-opacity="1" stop-color="rgb(1.954651%, 96.434021%, 71.961975%)" offset="0.226562"/><stop stop-opacity="1" stop-color="rgb(2.070618%, 96.29364%, 72.322083%)" offset="0.234375"/><stop stop-opacity="1" stop-color="rgb(2.186584%, 96.153259%, 72.680664%)" offset="0.242188"/><stop stop-opacity="1" stop-color="rgb(2.302551%, 96.014404%, 73.040771%)" offset="0.25"/><stop stop-opacity="1" stop-color="rgb(2.418518%, 95.874023%, 73.399353%)" offset="0.257812"/><stop stop-opacity="1" stop-color="rgb(2.534485%, 95.733643%, 73.75946%)" offset="0.265625"/><stop stop-opacity="1" stop-color="rgb(2.650452%, 95.593262%, 74.118042%)" offset="0.273438"/><stop stop-opacity="1" stop-color="rgb(2.766418%, 95.452881%, 74.478149%)" offset="0.281113"/><stop stop-opacity="1" stop-color="rgb(2.824402%, 95.38269%, 74.658203%)" offset="0.28125"/><stop stop-opacity="1" stop-color="rgb(2.882385%, 95.3125%, 74.836731%)" offset="0.289062"/><stop stop-opacity="1" stop-color="rgb(2.998352%, 95.172119%, 75.196838%)" offset="0.296875"/><stop stop-opacity="1" stop-color="rgb(3.114319%, 95.031738%, 75.556946%)" offset="0.304688"/><stop stop-opacity="1" stop-color="rgb(3.230286%, 94.892883%, 75.915527%)" offset="0.3125"/><stop stop-opacity="1" stop-color="rgb(3.346252%, 94.752502%, 76.275635%)" offset="0.320312"/><stop stop-opacity="1" stop-color="rgb(3.462219%, 94.612122%, 76.634216%)" offset="0.328125"/><stop stop-opacity="1" stop-color="rgb(3.578186%, 94.471741%, 76.994324%)" offset="0.335938"/><stop stop-opacity="1" stop-color="rgb(3.694153%, 94.33136%, 77.352905%)" offset="0.34375"/><stop stop-opacity="1" stop-color="rgb(3.81012%, 94.190979%, 77.713013%)" offset="0.351562"/><stop stop-opacity="1" stop-color="rgb(3.926086%, 94.050598%, 78.071594%)" offset="0.359375"/><stop stop-opacity="1" stop-color="rgb(4.042053%, 93.911743%, 78.431702%)" offset="0.367187"/><stop stop-opacity="1" stop-color="rgb(4.15802%, 93.771362%, 78.790283%)" offset="0.375"/><stop stop-opacity="1" stop-color="rgb(4.273987%, 93.630981%, 79.150391%)" offset="0.382812"/><stop stop-opacity="1" stop-color="rgb(4.389954%, 93.490601%, 79.510498%)" offset="0.390625"/><stop stop-opacity="1" stop-color="rgb(4.50592%, 93.35022%, 79.86908%)" offset="0.398438"/><stop stop-opacity="1" stop-color="rgb(4.621887%, 93.209839%, 80.229187%)" offset="0.40625"/><stop stop-opacity="1" stop-color="rgb(4.737854%, 93.069458%, 80.587769%)" offset="0.414062"/><stop stop-opacity="1" stop-color="rgb(4.853821%, 92.929077%, 80.947876%)" offset="0.421875"/><stop stop-opacity="1" stop-color="rgb(4.969788%, 92.790222%, 81.306458%)" offset="0.429687"/><stop stop-opacity="1" stop-color="rgb(5.085754%, 92.649841%, 81.666565%)" offset="0.4375"/><stop stop-opacity="1" stop-color="rgb(5.201721%, 92.50946%, 82.025146%)" offset="0.445312"/><stop stop-opacity="1" stop-color="rgb(5.317688%, 92.36908%, 82.385254%)" offset="0.453125"/><stop stop-opacity="1" stop-color="rgb(5.433655%, 92.228699%, 82.743835%)" offset="0.460938"/><stop stop-opacity="1" stop-color="rgb(5.549622%, 92.088318%, 83.103943%)" offset="0.46875"/><stop stop-opacity="1" stop-color="rgb(5.665588%, 91.947937%, 83.46405%)" offset="0.476562"/><stop stop-opacity="1" stop-color="rgb(5.781555%, 91.807556%, 83.822632%)" offset="0.484375"/><stop stop-opacity="1" stop-color="rgb(5.897522%, 91.668701%, 84.182739%)" offset="0.492187"/><stop stop-opacity="1" stop-color="rgb(6.013489%, 91.52832%, 84.541321%)" offset="0.5"/><stop stop-opacity="1" stop-color="rgb(6.129456%, 91.387939%, 84.901428%)" offset="0.507812"/><stop stop-opacity="1" stop-color="rgb(6.245422%, 91.247559%, 85.26001%)" offset="0.515625"/><stop stop-opacity="1" stop-color="rgb(6.361389%, 91.107178%, 85.620117%)" offset="0.523438"/><stop stop-opacity="1" stop-color="rgb(6.477356%, 90.966797%, 85.978699%)" offset="0.53125"/><stop stop-opacity="1" stop-color="rgb(6.593323%, 90.826416%, 86.338806%)" offset="0.539062"/><stop stop-opacity="1" stop-color="rgb(6.70929%, 90.687561%, 86.697388%)" offset="0.546875"/><stop stop-opacity="1" stop-color="rgb(6.825256%, 90.54718%, 87.057495%)" offset="0.554688"/><stop stop-opacity="1" stop-color="rgb(6.941223%, 90.406799%, 87.417603%)" offset="0.5625"/><stop stop-opacity="1" stop-color="rgb(7.05719%, 90.266418%, 87.776184%)" offset="0.570312"/><stop stop-opacity="1" stop-color="rgb(7.171631%, 90.126038%, 88.136292%)" offset="0.578125"/><stop stop-opacity="1" stop-color="rgb(7.287598%, 89.985657%, 88.494873%)" offset="0.585938"/><stop stop-opacity="1" stop-color="rgb(7.403564%, 89.845276%, 88.85498%)" offset="0.59375"/><stop stop-opacity="1" stop-color="rgb(7.519531%, 89.704895%, 89.213562%)" offset="0.601562"/><stop stop-opacity="1" stop-color="rgb(7.635498%, 89.56604%, 89.573669%)" offset="0.609375"/><stop stop-opacity="1" stop-color="rgb(7.751465%, 89.425659%, 89.932251%)" offset="0.617188"/><stop stop-opacity="1" stop-color="rgb(7.867432%, 89.285278%, 90.292358%)" offset="0.625"/><stop stop-opacity="1" stop-color="rgb(7.983398%, 89.144897%, 90.65094%)" offset="0.632812"/><stop stop-opacity="1" stop-color="rgb(8.099365%, 89.004517%, 91.011047%)" offset="0.640625"/><stop stop-opacity="1" stop-color="rgb(8.215332%, 88.864136%, 91.371155%)" offset="0.648438"/><stop stop-opacity="1" stop-color="rgb(8.331299%, 88.723755%, 91.729736%)" offset="0.65625"/><stop stop-opacity="1" stop-color="rgb(8.447266%, 88.583374%, 92.089844%)" offset="0.664063"/><stop stop-opacity="1" stop-color="rgb(8.563232%, 88.444519%, 92.448425%)" offset="0.671875"/><stop stop-opacity="1" stop-color="rgb(8.679199%, 88.304138%, 92.808533%)" offset="0.679688"/><stop stop-opacity="1" stop-color="rgb(8.795166%, 88.163757%, 93.167114%)" offset="0.6875"/><stop stop-opacity="1" stop-color="rgb(8.911133%, 88.023376%, 93.527222%)" offset="0.695313"/><stop stop-opacity="1" stop-color="rgb(9.0271%, 87.882996%, 93.885803%)" offset="0.703125"/><stop stop-opacity="1" stop-color="rgb(9.143066%, 87.742615%, 94.245911%)" offset="0.710938"/><stop stop-opacity="1" stop-color="rgb(9.259033%, 87.602234%, 94.604492%)" offset="0.71875"/><stop stop-opacity="1" stop-color="rgb(9.375%, 87.463379%, 94.9646%)" offset="0.718887"/><stop stop-opacity="1" stop-color="rgb(9.432983%, 87.393188%, 95.144653%)" offset="0.726562"/><stop stop-opacity="1" stop-color="rgb(9.490967%, 87.322998%, 95.324707%)" offset="0.734375"/><stop stop-opacity="1" stop-color="rgb(9.606934%, 87.182617%, 95.683289%)" offset="0.742188"/><stop stop-opacity="1" stop-color="rgb(9.7229%, 87.042236%, 96.043396%)" offset="0.75"/><stop stop-opacity="1" stop-color="rgb(9.838867%, 86.901855%, 96.401978%)" offset="0.757812"/><stop stop-opacity="1" stop-color="rgb(9.954834%, 86.761475%, 96.762085%)" offset="0.765625"/><stop stop-opacity="1" stop-color="rgb(10.070801%, 86.621094%, 97.120667%)" offset="0.773438"/><stop stop-opacity="1" stop-color="rgb(10.186768%, 86.480713%, 97.480774%)" offset="0.78125"/><stop stop-opacity="1" stop-color="rgb(10.302734%, 86.341858%, 97.839355%)" offset="0.789062"/><stop stop-opacity="1" stop-color="rgb(10.418701%, 86.201477%, 98.199463%)" offset="0.796875"/><stop stop-opacity="1" stop-color="rgb(10.534668%, 86.061096%, 98.558044%)" offset="0.804688"/><stop stop-opacity="1" stop-color="rgb(10.650635%, 85.920715%, 98.918152%)" offset="0.8125"/><stop stop-opacity="1" stop-color="rgb(10.766602%, 85.780334%, 99.278259%)" offset="0.820313"/><stop stop-opacity="1" stop-color="rgb(10.882568%, 85.639954%, 99.636841%)" offset="0.828125"/><stop stop-opacity="1" stop-color="rgb(10.969543%, 85.534668%, 99.908447%)" offset="0.84375"/><stop stop-opacity="1" stop-color="rgb(10.998535%, 85.499573%, 100%)" offset="0.875"/><stop stop-opacity="1" stop-color="rgb(10.998535%, 85.499573%, 100%)" offset="1"/></linearGradient></defs><g clip-path="url(#b07dac8ccf)"><g clip-path="url(#49ee288587)"><path fill="#00faa8" d="M 359.078125 187.5 L 368.46875 187.5 L 368.46875 196.890625 L 359.078125 196.890625 Z M 359.078125 187.5 " fill-opacity="1" fill-rule="nonzero"/></g></g><g clip-path="url(#81e00eff03)"><g clip-path="url(#78a0c90e20)"><path fill="url(#77484dd035)" d="M 6.375 136.464844 L 6.375 208.464844 L 74.621094 208.464844 L 74.621094 136.464844 Z M 6.375 136.464844 " fill-rule="nonzero"/></g></g><g fill="#08b4d6" fill-opacity="1"><g transform="translate(76.673876, 196.292054)"><g><path d="M 22.875 0 L 12.921875 0 L 0.640625 -33.234375 L 9.375 -33.234375 L 17.625 -9.546875 L 18.328125 -9.546875 L 26.609375 -33.234375 L 35.140625 -33.234375 Z M 22.875 0 "/></g></g></g><g fill="#08b4d6" fill-opacity="1"><g transform="translate(112.417561, 196.292054)"><g><path d="M 32.84375 -14.734375 L 11.484375 -14.734375 C 11.722656 -11.835938 12.546875 -9.734375 13.953125 -8.421875 C 15.359375 -7.109375 17.273438 -6.453125 19.703125 -6.453125 C 21.617188 -6.453125 23.164062 -6.804688 24.34375 -7.515625 C 25.53125 -8.234375 26.488281 -9.316406 27.21875 -10.765625 L 27.84375 -10.765625 L 33.390625 -7.203125 C 32.304688 -4.867188 30.664062 -2.976562 28.46875 -1.53125 C 26.28125 -0.0820312 23.359375 0.640625 19.703125 0.640625 C 16.273438 0.640625 13.304688 -0.0078125 10.796875 -1.3125 C 8.296875 -2.625 6.367188 -4.570312 5.015625 -7.15625 C 3.660156 -9.738281 2.984375 -12.890625 2.984375 -16.609375 C 2.984375 -20.378906 3.695312 -23.5625 5.125 -26.15625 C 6.550781 -28.75 8.476562 -30.679688 10.90625 -31.953125 C 13.34375 -33.234375 16.078125 -33.875 19.109375 -33.875 C 23.804688 -33.875 27.40625 -32.628906 29.90625 -30.140625 C 32.40625 -27.648438 33.65625 -23.992188 33.65625 -19.171875 C 33.65625 -17.421875 33.597656 -16.0625 33.484375 -15.09375 Z M 25.671875 -20.125 C 25.597656 -22.65625 25.007812 -24.5 23.90625 -25.65625 C 22.8125 -26.8125 21.210938 -27.390625 19.109375 -27.390625 C 14.890625 -27.390625 12.40625 -24.96875 11.65625 -20.125 Z M 25.671875 -20.125 "/></g></g></g><g fill="#08b4d6" fill-opacity="1"><g transform="translate(148.553045, 196.292054)"><g><path d="M 4.796875 0 L 4.796875 -33.234375 L 12.890625 -33.234375 L 12.890625 -28.296875 L 13.53125 -28.171875 C 14.332031 -30.023438 15.382812 -31.382812 16.6875 -32.25 C 18 -33.113281 19.585938 -33.546875 21.453125 -33.546875 C 23.347656 -33.546875 24.785156 -33.222656 25.765625 -32.578125 L 24.34375 -25.375 L 23.71875 -25.25 C 23.175781 -25.46875 22.648438 -25.628906 22.140625 -25.734375 C 21.640625 -25.835938 21.03125 -25.890625 20.3125 -25.890625 C 17.976562 -25.890625 16.195312 -25.066406 14.96875 -23.421875 C 13.75 -21.785156 13.140625 -19.160156 13.140625 -15.546875 L 13.140625 0 Z M 4.796875 0 "/></g></g></g><g fill="#08b4d6" fill-opacity="1"><g transform="translate(174.622433, 196.292054)"><g><path d="M 22.9375 -7.921875 L 25.109375 -1.75 C 24.203125 -1.007812 23.066406 -0.425781 21.703125 0 C 20.335938 0.425781 18.789062 0.640625 17.0625 0.640625 C 13.457031 0.640625 10.722656 -0.335938 8.859375 -2.296875 C 6.992188 -4.265625 6.0625 -7.113281 6.0625 -10.84375 L 6.0625 -26.640625 L 1 -26.640625 L 1 -33.265625 L 6.0625 -33.265625 L 6.0625 -39.75 L 14.40625 -41.109375 L 14.40625 -33.265625 L 23.84375 -33.265625 L 23.84375 -26.640625 L 14.40625 -26.640625 L 14.40625 -11.453125 C 14.40625 -9.804688 14.742188 -8.601562 15.421875 -7.84375 C 16.109375 -7.09375 17.101562 -6.71875 18.40625 -6.71875 C 19.894531 -6.71875 21.191406 -7.117188 22.296875 -7.921875 Z M 22.9375 -7.921875 "/></g></g></g><g fill="#08b4d6" fill-opacity="1"><g transform="translate(200.450717, 196.292054)"><g><path d="M 32.84375 -14.734375 L 11.484375 -14.734375 C 11.722656 -11.835938 12.546875 -9.734375 13.953125 -8.421875 C 15.359375 -7.109375 17.273438 -6.453125 19.703125 -6.453125 C 21.617188 -6.453125 23.164062 -6.804688 24.34375 -7.515625 C 25.53125 -8.234375 26.488281 -9.316406 27.21875 -10.765625 L 27.84375 -10.765625 L 33.390625 -7.203125 C 32.304688 -4.867188 30.664062 -2.976562 28.46875 -1.53125 C 26.28125 -0.0820312 23.359375 0.640625 19.703125 0.640625 C 16.273438 0.640625 13.304688 -0.0078125 10.796875 -1.3125 C 8.296875 -2.625 6.367188 -4.570312 5.015625 -7.15625 C 3.660156 -9.738281 2.984375 -12.890625 2.984375 -16.609375 C 2.984375 -20.378906 3.695312 -23.5625 5.125 -26.15625 C 6.550781 -28.75 8.476562 -30.679688 10.90625 -31.953125 C 13.34375 -33.234375 16.078125 -33.875 19.109375 -33.875 C 23.804688 -33.875 27.40625 -32.628906 29.90625 -30.140625 C 32.40625 -27.648438 33.65625 -23.992188 33.65625 -19.171875 C 33.65625 -17.421875 33.597656 -16.0625 33.484375 -15.09375 Z M 25.671875 -20.125 C 25.597656 -22.65625 25.007812 -24.5 23.90625 -25.65625 C 22.8125 -26.8125 21.210938 -27.390625 19.109375 -27.390625 C 14.890625 -27.390625 12.40625 -24.96875 11.65625 -20.125 Z M 25.671875 -20.125 "/></g></g></g><g fill="#08b4d6" fill-opacity="1"><g transform="translate(236.586201, 196.292054)"><g><path d="M 9.375 0 L 0.578125 0 L 10.0625 -17.234375 L 1.078125 -33.234375 L 10 -33.234375 L 15.765625 -22.296875 L 16.453125 -22.296875 L 22.234375 -33.234375 L 30.890625 -33.234375 L 22.1875 -17.234375 L 31.40625 0 L 22.515625 0 L 16.25 -12.140625 L 15.546875 -12.140625 Z M 9.375 0 "/></g></g></g><g fill="#08b4d6" fill-opacity="1"><g transform="translate(268.562639, 196.292054)"><g/></g></g><g fill="#08b4d6" fill-opacity="1"><g transform="translate(283.119306, 196.292054)"><g><path d="M 19.375 0.640625 C 16.164062 0.640625 13.320312 -0.0234375 10.84375 -1.359375 C 8.375 -2.703125 6.445312 -4.671875 5.0625 -7.265625 C 3.675781 -9.859375 2.984375 -12.972656 2.984375 -16.609375 C 2.984375 -20.265625 3.675781 -23.382812 5.0625 -25.96875 C 6.445312 -28.5625 8.363281 -30.523438 10.8125 -31.859375 C 13.269531 -33.203125 16.078125 -33.875 19.234375 -33.875 C 26.242188 -33.875 30.734375 -31.332031 32.703125 -26.25 L 26.96875 -22.15625 L 26.34375 -22.15625 C 25.65625 -23.71875 24.765625 -24.878906 23.671875 -25.640625 C 22.578125 -26.410156 21.097656 -26.796875 19.234375 -26.796875 C 16.816406 -26.796875 14.9375 -25.957031 13.59375 -24.28125 C 12.25 -22.613281 11.578125 -20.054688 11.578125 -16.609375 C 11.578125 -13.191406 12.257812 -10.644531 13.625 -8.96875 C 14.988281 -7.289062 16.90625 -6.453125 19.375 -6.453125 C 21.1875 -6.453125 22.71875 -6.9375 23.96875 -7.90625 C 25.226562 -8.882812 26.128906 -10.285156 26.671875 -12.109375 L 27.296875 -12.171875 L 33.234375 -8.921875 C 32.390625 -6.109375 30.828125 -3.8125 28.546875 -2.03125 C 26.273438 -0.25 23.21875 0.640625 19.375 0.640625 Z M 19.375 0.640625 "/></g></g></g><g fill="#08b4d6" fill-opacity="1"><g transform="translate(317.386234, 196.292054)"><g><path d="M 19.3125 0.640625 C 16.0625 0.640625 13.203125 -0.0234375 10.734375 -1.359375 C 8.273438 -2.703125 6.367188 -4.664062 5.015625 -7.25 C 3.660156 -9.832031 2.984375 -12.953125 2.984375 -16.609375 C 2.984375 -20.265625 3.660156 -23.382812 5.015625 -25.96875 C 6.367188 -28.5625 8.273438 -30.523438 10.734375 -31.859375 C 13.203125 -33.203125 16.0625 -33.875 19.3125 -33.875 C 22.570312 -33.875 25.429688 -33.203125 27.890625 -31.859375 C 30.347656 -30.523438 32.257812 -28.5625 33.625 -25.96875 C 35 -23.382812 35.6875 -20.265625 35.6875 -16.609375 C 35.6875 -12.953125 35 -9.832031 33.625 -7.25 C 32.257812 -4.664062 30.347656 -2.703125 27.890625 -1.359375 C 25.429688 -0.0234375 22.570312 0.640625 19.3125 0.640625 Z M 19.3125 -6.453125 C 24.476562 -6.453125 27.0625 -9.835938 27.0625 -16.609375 C 27.0625 -20.117188 26.394531 -22.691406 25.0625 -24.328125 C 23.738281 -25.972656 21.820312 -26.796875 19.3125 -26.796875 C 14.15625 -26.796875 11.578125 -23.398438 11.578125 -16.609375 C 11.578125 -9.835938 14.15625 -6.453125 19.3125 -6.453125 Z M 19.3125 -6.453125 "/></g></g></g></svg>